<svg width="72" height="72" viewBox="0 0 72 72" fill="none" xmlns="http://www.w3.org/2000/svg">
<path d="M70.5938 2.81665H1.40625C0.629578 2.81665 0 3.44637 0 4.2229V67.7767C0 68.5532 0.629578 69.1829 1.40625 69.1829H15.0469C15.8235 69.1829 16.4531 68.5532 16.4531 67.7767C16.4531 67.0001 15.8235 66.3704 15.0469 66.3704H2.8125V15.747C2.85891 15.7516 2.90602 15.7542 2.95369 15.7542H69.1875V66.3704H66.6861V60.2947C66.6861 57.5493 64.9351 55.1244 62.3291 54.2611L57.3667 52.6166C57.9724 51.9039 58.4667 51.0945 58.8233 50.2144H63.002C63.7786 50.2144 64.4082 49.5847 64.4082 48.8082V44.8419C64.4082 37.2501 58.2318 31.0736 50.6399 31.0736C43.048 31.0736 36.8716 37.2501 36.8716 44.8419V48.8082C36.8716 49.5847 37.5012 50.2144 38.2778 50.2144H42.4565C42.8133 51.0945 43.3074 51.9039 43.9131 52.6166L38.9507 54.2611C36.3447 55.1244 34.5938 57.5492 34.5938 60.2946V66.3703H28.0529C27.2762 66.3703 26.6466 67 26.6466 67.7765C26.6466 68.5531 27.2762 69.1828 28.0529 69.1828H36H65.2798H70.5938C71.3704 69.1828 72 68.5531 72 67.7765V4.2229C72 3.44623 71.3704 2.81665 70.5938 2.81665ZM61.5957 47.4018H59.4533C59.4623 47.2385 59.4678 47.0743 59.4678 46.9088V44.9726C59.4678 44.9596 59.4668 44.9468 59.4668 44.9338H61.5957V47.4018ZM39.6841 47.4018V44.9338H41.813C41.813 44.9469 41.812 44.9597 41.812 44.9726V46.9088C41.812 47.0743 41.8175 47.2385 41.8265 47.4018H39.6841ZM42.2872 42.1212H40.0262C41.2391 37.3918 45.5376 33.8858 50.6399 33.8858C55.7422 33.8858 60.0407 37.3918 61.2536 42.1212H58.9926C57.8039 38.6489 54.5099 36.1446 50.6399 36.1446C46.7699 36.1446 43.4759 38.6489 42.2872 42.1212ZM50.6399 46.7385C49.8632 46.7385 49.2337 47.3682 49.2337 48.1447V49.5979C49.2337 50.3745 49.8632 51.0042 50.6399 51.0042H55.0403C54.7213 51.3468 54.3634 51.6525 53.9729 51.9133C53.8805 51.9583 53.7931 52.0133 53.7124 52.0776C52.8124 52.6145 51.7618 52.9242 50.6399 52.9242C49.518 52.9242 48.4675 52.6146 47.5677 52.0777C47.4868 52.0135 47.3993 51.9583 47.3067 51.9132C45.691 50.8335 44.6245 48.9935 44.6245 46.9088V44.9726C44.6245 41.6557 47.323 38.9573 50.6399 38.9573C53.9568 38.9573 56.6553 41.6557 56.6553 44.9726V46.9088C56.6553 47.3491 56.6063 47.778 56.5162 48.1917H52.0462V48.1447C52.0462 47.3682 51.4166 46.7385 50.6399 46.7385ZM63.8734 66.3703H37.4062V60.2946C37.4062 58.7639 38.3825 57.4121 39.8354 56.9306L46.5228 54.7143C47.753 55.3658 49.1536 55.7365 50.6399 55.7365C52.1262 55.7365 53.5268 55.3658 54.757 54.7143L61.4444 56.9306C62.8973 57.4121 63.8734 58.7639 63.8734 60.2946V66.3703ZM69.1875 12.9417H2.95369C2.90602 12.9417 2.85891 12.9442 2.8125 12.9488V5.62915H69.1875V12.9417Z" fill="#086CF9"/>
<path d="M22.718 66.7829C22.4564 66.5201 22.0936 66.3708 21.7238 66.3708C21.3525 66.3708 20.9911 66.5201 20.7295 66.7829C20.4666 67.0444 20.3175 67.4073 20.3175 67.7771C20.3175 68.1469 20.4666 68.5098 20.7295 68.7713C20.9911 69.0327 21.3525 69.1833 21.7238 69.1833C22.0936 69.1833 22.4564 69.0329 22.718 68.7713C22.9795 68.5098 23.13 68.1469 23.13 67.7771C23.13 67.4073 22.9795 67.0444 22.718 66.7829Z" fill="#086CF9"/>
<path d="M63.0001 7.87915H31.2279C30.4513 7.87915 29.8217 8.50887 29.8217 9.2854C29.8217 10.0619 30.4513 10.6917 31.2279 10.6917H63.0001C63.7767 10.6917 64.4063 10.0619 64.4063 9.2854C64.4063 8.50887 63.7767 7.87915 63.0001 7.87915Z" fill="#086CF9"/>
<path d="M15.6192 8.29191C15.3577 8.03021 14.9948 7.87988 14.625 7.87988C14.2552 7.87988 13.8923 8.03021 13.6308 8.29191C13.3692 8.55334 13.2188 8.91615 13.2188 9.28613C13.2188 9.65598 13.3692 10.0188 13.6308 10.2802C13.8923 10.5418 14.2552 10.6924 14.625 10.6924C14.9948 10.6924 15.3577 10.5419 15.6192 10.2802C15.8808 10.0188 16.0312 9.65598 16.0312 9.28613C16.0312 8.91615 15.8808 8.55334 15.6192 8.29191Z" fill="#086CF9"/>
<path d="M9.99422 8.29191C9.73266 8.03021 9.36984 7.87988 9 7.87988C8.63016 7.87988 8.26734 8.03021 8.00578 8.29191C7.74422 8.55334 7.59375 8.91615 7.59375 9.28613C7.59375 9.65598 7.74422 10.0188 8.00578 10.2802C8.26734 10.5418 8.63016 10.6924 9 10.6924C9.36984 10.6924 9.73266 10.5419 9.99422 10.2802C10.2558 10.0188 10.4062 9.65598 10.4062 9.28613C10.4062 8.91615 10.2558 8.55334 9.99422 8.29191Z" fill="#086CF9"/>
<path d="M21.2442 8.29191C20.9827 8.03021 20.6198 7.87988 20.25 7.87988C19.8802 7.87988 19.5173 8.03021 19.2558 8.29191C18.9942 8.55334 18.8438 8.91615 18.8438 9.28613C18.8438 9.65598 18.9942 10.0188 19.2558 10.2802C19.5173 10.5418 19.8802 10.6924 20.25 10.6924C20.6198 10.6924 20.9827 10.5419 21.2442 10.2802C21.5058 10.0188 21.6562 9.65598 21.6562 9.28613C21.6562 8.91615 21.5058 8.55334 21.2442 8.29191Z" fill="#086CF9"/>
<path d="M30.1428 19.4104H13.3073C10.1568 19.4104 7.59375 21.9736 7.59375 25.1241V36.7592C7.59375 39.9097 10.1569 42.4729 13.3073 42.4729H30.1427C33.2933 42.4729 35.8564 39.9097 35.8564 36.7592V25.1241C35.8564 21.9736 33.2932 19.4104 30.1428 19.4104ZM30.1428 39.6604H13.3073C11.7077 39.6604 10.4062 38.3589 10.4062 36.7592V25.1241C10.4062 23.5244 11.7077 22.2229 13.3073 22.2229H30.1427C31.7423 22.2229 33.0438 23.5244 33.0438 25.1241V36.7592H33.0439C33.0439 38.3589 31.7424 39.6604 30.1428 39.6604Z" fill="#086CF9"/>
<path d="M25.9277 28.5791L20.5523 25.1337C19.688 24.5797 18.5914 24.5415 17.6906 25.0339C16.7897 25.5266 16.2302 26.4703 16.2302 27.497V34.3879C16.2302 35.4146 16.7897 36.3583 17.6906 36.851C18.1113 37.081 18.5748 37.1952 19.0374 37.1952C19.5651 37.1952 20.0918 37.0464 20.5523 36.7513L25.9277 33.3058C26.7369 32.7872 27.2201 31.9036 27.2201 30.9425C27.2201 29.9813 26.7367 29.0977 25.9277 28.5791ZM19.0427 34.3775L19.0431 27.507L24.4026 30.9426L19.0427 34.3775Z" fill="#086CF9"/>
<path d="M19.3351 53.1604H9C8.22333 53.1604 7.59375 53.7901 7.59375 54.5667C7.59375 55.3432 8.22333 55.9729 9 55.9729H19.3351C20.1118 55.9729 20.7413 55.3432 20.7413 54.5667C20.7413 53.7901 20.1118 53.1604 19.3351 53.1604Z" fill="#086CF9"/>
<path d="M29.6458 53.1604H25.75C24.9733 53.1604 24.3437 53.7901 24.3437 54.5667C24.3437 55.3432 24.9733 55.9729 25.75 55.9729H29.6458C30.4225 55.9729 31.0521 55.3432 31.0521 54.5667C31.0521 53.7901 30.4225 53.1604 29.6458 53.1604Z" fill="#086CF9"/>
<path d="M23.82 46.4104H9C8.22333 46.4104 7.59375 47.0401 7.59375 47.8167C7.59375 48.5932 8.22333 49.2229 9 49.2229H23.82C24.5967 49.2229 25.2263 48.5932 25.2263 47.8167C25.2263 47.0401 24.5967 46.4104 23.82 46.4104Z" fill="#086CF9"/>
<path d="M30.6912 46.8222C30.4297 46.5606 30.0669 46.4102 29.697 46.4102C29.3258 46.4102 28.9644 46.5605 28.7028 46.8222C28.4412 47.0836 28.2908 47.4464 28.2908 47.8164C28.2908 48.1862 28.4412 48.5491 28.7028 48.8105C28.9644 49.072 29.3258 49.2227 29.697 49.2227C30.0669 49.2227 30.4297 49.0722 30.6912 48.8105C30.9528 48.5491 31.1033 48.1862 31.1033 47.8164C31.1033 47.4466 30.9528 47.0838 30.6912 46.8222Z" fill="#086CF9"/>
<path d="M29.6438 59.9104H9C8.22333 59.9104 7.59375 60.5401 7.59375 61.3167C7.59375 62.0932 8.22333 62.7229 9 62.7229H29.6438C30.4204 62.7229 31.05 62.0932 31.05 61.3167C31.05 60.5401 30.4204 59.9104 29.6438 59.9104Z" fill="#086CF9"/>
</svg>
