<svg width="80" height="80" viewBox="0 0 80 80" fill="none" xmlns="http://www.w3.org/2000/svg">
<g clip-path="url(#clip0_1_633)">
<path d="M55.5335 80.0068C57.3409 80.0019 58.9224 78.7914 59.399 77.0481L63.085 63.2863L77.0446 59.5544C79.1716 58.976 80.431 56.7879 79.8642 54.6584L72.6263 27.682L73.1993 25.5495C73.7173 23.5853 72.68 21.5449 70.7879 20.8054L67.5289 8.63976C66.9456 6.51453 64.763 5.2533 62.6304 5.80856L38.8239 12.1946L18.8615 6.8428C18.0433 6.61826 17.1744 6.66524 16.3854 6.97643L11.3985 1.99803C9.71745 0.301745 7.25784 -0.365784 4.95017 0.24866C2.64249 0.863105 0.840042 2.66495 0.224987 4.97262C-0.390068 7.2803 0.276242 9.74051 1.97191 11.4215L11.0617 20.5113L0.171292 61.1659C-0.39861 63.2979 0.862008 65.489 2.99151 66.0686L54.4956 79.8683C54.8337 79.9605 55.1827 80.0074 55.5335 80.0068ZM77.285 55.3473C77.4735 56.0545 77.0568 56.7818 76.3514 56.9765L63.8831 60.3086L71.2424 32.8356L77.285 55.3473ZM63.3126 8.38654C63.6562 8.29257 64.0229 8.34017 64.331 8.51834C64.6391 8.6959 64.8631 8.99 64.9534 9.33414L67.7968 19.9554L43.9732 13.573L63.3126 8.38654ZM40.386 40.417L33.6564 38.174L38.143 33.6831L40.386 40.4121V40.417ZM34.9609 33.1022L23.6508 21.7908C23.1303 21.2703 22.2858 21.2703 21.7653 21.7914C21.2448 22.3119 21.2455 23.1564 21.7665 23.6769L33.0773 34.9852L31.1931 36.8719L12.3412 18.02L14.226 16.1351L17.9951 19.906C18.3325 20.2428 18.8231 20.3746 19.2837 20.2507C19.7438 20.1275 20.1032 19.7681 20.2265 19.308C20.3497 18.848 20.2185 18.3568 19.8817 18.02L16.1121 14.2503L17.9969 12.3643L36.8457 31.2162L34.9609 33.1022ZM8.57033 14.2503L14.226 8.59461L16.1108 10.4794L10.4564 16.1351L8.57033 14.2503ZM2.68643 6.70978C2.68643 5.09222 3.66087 3.63329 5.15519 3.01458C6.65011 2.39586 8.37019 2.73817 9.51365 3.88224L12.3412 6.70978L6.6855 12.3655L3.85674 9.53672C3.105 8.78864 2.68337 7.77088 2.68643 6.70978ZM2.74805 61.8658L13.2406 22.6902L30.2492 39.6988C30.3883 39.8349 30.5555 39.938 30.7397 40.0014C30.7501 40.0014 30.7581 40.0161 30.7703 40.0197L39.5506 42.9522C39.8246 43.0425 40.112 43.0871 40.4006 43.0859C40.9028 43.084 41.394 42.9394 41.8162 42.6685L57.145 46.7847C57.2579 46.8159 57.3744 46.8317 57.4916 46.8311C58.1609 46.8311 58.726 46.335 58.8126 45.6718C58.8998 45.0085 58.4819 44.3837 57.8357 44.211L43.0402 40.2388C43.0268 40.0124 42.9859 39.7885 42.9176 39.5719L39.9851 30.7909C39.9851 30.7787 39.9704 30.7707 39.965 30.7585C39.9015 30.5761 39.7984 30.4095 39.6635 30.271L19.0616 9.66058L69.6749 23.218C70.0172 23.3095 70.3089 23.5329 70.4858 23.8398C70.6628 24.1461 70.7104 24.5104 70.6188 24.8527L56.8253 76.3507C56.7343 76.693 56.5104 76.9853 56.2035 77.1622C55.8966 77.3392 55.5317 77.3867 55.19 77.2946L3.69138 63.4998C3.34968 63.4083 3.05802 63.185 2.88046 62.8787C2.70351 62.5717 2.65592 62.2075 2.74805 61.8658Z" fill="#086CF9"/>
<path d="M61.6344 31.3748C62.3032 31.3742 62.8682 30.8781 62.9555 30.2149C63.0421 29.5522 62.6241 28.9268 61.9786 28.7541L43.0199 23.6744C42.5549 23.5359 42.0521 23.661 41.7062 24.0008C41.3602 24.3401 41.226 24.8411 41.3553 25.3078C41.4847 25.7752 41.8581 26.1352 42.3292 26.2481L61.2891 31.329C61.402 31.3595 61.5179 31.3748 61.6344 31.3748Z" fill="#086CF9"/>
<path d="M59.5629 39.1001C60.2316 39.0994 60.7967 38.604 60.8839 37.9407C60.9712 37.2775 60.5532 36.6526 59.907 36.4794L47.0171 33.0313C46.554 32.8995 46.0561 33.027 45.7138 33.3663C45.3715 33.7049 45.2391 34.2022 45.3666 34.6665C45.4941 35.1309 45.8621 35.4903 46.3295 35.6062L59.2194 39.0549C59.331 39.0848 59.447 39.1001 59.5629 39.1001Z" fill="#086CF9"/>
<path d="M18.4331 41.9245L14.5677 40.889C14.1039 40.7535 13.603 40.8792 13.2589 41.2185C12.9147 41.5571 12.7805 42.0557 12.9086 42.5218C13.0367 42.9874 13.4065 43.3474 13.8757 43.4627L17.7412 44.5C17.8547 44.5299 17.9706 44.5452 18.0878 44.5452C18.7571 44.5458 19.3228 44.0497 19.41 43.3864C19.4973 42.7232 19.0793 42.0978 18.4331 41.9245Z" fill="#086CF9"/>
<path d="M56.7123 53.5597C56.9027 52.8488 56.4804 52.1191 55.7702 51.9281L26.156 43.9946C25.469 43.8604 24.7953 44.2814 24.6135 44.9575C24.4323 45.6335 24.8051 46.3352 25.4671 46.5628L55.0795 54.4969C55.1923 54.528 55.3083 54.5433 55.4248 54.5433C56.0271 54.5439 56.5549 54.1406 56.7123 53.5597Z" fill="#086CF9"/>
<path d="M16.3612 49.6496L12.4958 48.6135C11.7861 48.4274 11.0594 48.8496 10.8697 49.5581C10.6799 50.2671 11.0991 50.9962 11.8069 51.189L15.6723 52.2233C15.7846 52.2544 15.9005 52.2703 16.0177 52.2697C16.6864 52.2703 17.2521 51.7742 17.3393 51.1109C17.4272 50.4477 17.0092 49.8223 16.3624 49.6496H16.3612Z" fill="#086CF9"/>
<path d="M53.6993 59.655L24.087 51.7197C23.6221 51.5818 23.1193 51.7069 22.7733 52.0461C22.4274 52.386 22.2931 52.8863 22.4225 53.3537C22.5518 53.8205 22.9253 54.1805 23.3963 54.294L53.0092 62.2287C53.1221 62.2598 53.2387 62.2757 53.3558 62.2757C54.0246 62.2751 54.5896 61.779 54.6768 61.1157C54.7635 60.4525 54.3455 59.8277 53.6993 59.655Z" fill="#086CF9"/>
</g>
<defs>
<clipPath id="clip0_1_633">
<rect width="80" height="80" fill="white"/>
</clipPath>
</defs>
</svg>
